<svg xmlns="http://www.w3.org/2000/svg" viewBox="0 0 100 100">
  <defs>
    <filter id="bold">
      <feMorphology operator="dilate" radius="0.4"/>
    </filter>
  </defs>
  <g transform="matrix(4,0,0,4,10,-10)" fill="#111" filter="url(#bold)">
    <path d="M23.2 22.06q.2.08.3.27t-.02.39-.5.32-1.12.04q-.48-.04-1.32-.42t-1.91-.92-2.3-1.18-2.5-1.24-2.52-1.07-2.33-.67q-.06.62-.14 1.29t-.2 1.23-.28.92-.36.36q-.22 0-.34-.51t-.2-1.16-.1-1.26-.02-.79v-.7q-.5-.18-.86-.43t-.36-.53q0-.1.12-.18t.44-.08q.3 0 .7.1.02-.28.04-.57t.07-.69.12-.94.19-1.3.19-.98.21-.22q.34 0 .58.15t.39.36.22.45.07.4q0 .98-.17 1.96t-.21 2.02q.7.06 1.7.03t2.1-.2 2.19-.49 1.96-.85 1.41-1.26.54-1.73q0-.76-.47-1.31t-1.22-.93-1.67-.62-1.83-.37-1.71-.17-1.28-.04q-1.76 0-3.46.32t-3.26 1.08q-.46.22-.87.46t-.95.54q-.06.06-.35.25t-.6.33-.56.14-.25-.32q0-.34.27-.65t.55-.59q.88-.88 1.96-1.47t2.26-.95 2.41-.52 2.43-.16q.64 0 1.62.07t2.07.26 2.2.53 1.99.88 1.43 1.31.55 1.81q0 .82-.34 1.54t-.92 1.31-1.37 1.07-1.69.82-1.86.57-1.9.31q1.14.42 2.56 1.03t2.9 1.25 2.92 1.25 2.66 1.05z"/>
  </g>
</svg> 